<?xml version="1.0" encoding="utf-8"?>
<!-- Generator: Adobe Illustrator 22.1.0, SVG Export Plug-In . SVG Version: 6.00 Build 0)  -->
<svg version="1.1" id="Calque_1" xmlns="http://www.w3.org/2000/svg" xmlns:xlink="http://www.w3.org/1999/xlink" x="0px" y="0px"
	 viewBox="0 0 1280 1024" style="enable-background:new 0 0 1280 1024;" xml:space="preserve">
<style type="text/css">
	.st0{fill:#FEE685;}
	.st1{fill:none;stroke:#010101;stroke-width:36;stroke-linecap:round;stroke-miterlimit:10;}
	.st2{fill:#010101;}
	.st3{fill:none;stroke:#010101;stroke-width:15;stroke-linecap:round;stroke-miterlimit:10;}
	.st4{fill:#D7EFF4;}
</style>
<path class="st0" d="M1091.7,572.8c43.1,123.9-81.2,279.8-277.7,348.2c-196.5,68.4-390.8,23.4-433.9-100.5
	C337,696.5,461.4,540.6,657.9,472.2C854.4,403.9,1048.6,448.9,1091.7,572.8z"/>
<line class="st1" x1="446" y1="622" x2="555.8" y2="937.6"/>
<line class="st1" x1="864" y1="454.2" x2="987.8" y2="810"/>
<line class="st1" x1="525.2" y1="545.7" x2="665.4" y2="948.2"/>
<path class="st2" d="M1059,550.8c4.2,12.1-3.1,25.6-16.3,30.2c-13.2,4.6-27.4-1.5-31.6-13.5c-4.2-12.1,3.1-25.6,16.3-30.2
	C1040.6,532.6,1054.8,538.7,1059,550.8z"/>
<path class="st3" d="M935.7,468.3c-39.2-40.7-57.9-194.4-25-223.9"/>
<path class="st3" d="M985.6,467.6c18.9-17.7,56.3-182.6,46-231.9"/>
<path class="st4" d="M611.8,609.9C504.4,596.7,95.4,384.8,218.2,242.5C341,100.1,588.7,402.9,611.8,609.9z"/>
<path class="st4" d="M606.3,493.2C546.7,333.4,500.4,77.4,642.9,66.9c139.3-10.3,153.6,201.8,98.4,378.3
	C699,460.9,650.5,471.5,606.3,493.2z"/>
<line class="st1" x1="627.8" y1="496" x2="776.5" y2="923.5"/>
<line class="st1" x1="738.8" y1="457.4" x2="887.6" y2="884.8"/>
</svg>
