<?xml version="1.0" encoding="utf-8"?>
<!-- Generator: Adobe Illustrator 22.1.0, SVG Export Plug-In . SVG Version: 6.00 Build 0)  -->
<svg version="1.1" id="Calque_1" xmlns="http://www.w3.org/2000/svg" xmlns:xlink="http://www.w3.org/1999/xlink" x="0px" y="0px"
	 viewBox="0 0 1280 1024" style="enable-background:new 0 0 1280 1024;" xml:space="preserve">
<style type="text/css">
	.st0{fill:#D7EFF4;}
	.st1{fill:#FEE685;}
	.st2{fill:none;stroke:#010101;stroke-width:36;stroke-linecap:round;stroke-miterlimit:10;}
	.st3{fill:#010101;}
	.st4{fill:none;stroke:#010101;stroke-width:15;stroke-linecap:round;stroke-miterlimit:10;}
</style>
<path class="st0" d="M630.2,484c-23-169-11.9-428.9,129.4-407.8c138.2,20.6,105.5,230.6,12.9,390.7
	C727.8,472.9,678.1,472.5,630.2,484z"/>
<path class="st1" d="M1091.7,572.8c43.1,123.9-81.2,279.8-277.7,348.2s-390.8,23.4-433.9-100.5c-43.1-124,81.3-279.9,277.8-348.3
	C854.4,403.9,1048.6,448.9,1091.7,572.8z"/>
<line class="st2" x1="446" y1="622" x2="555.8" y2="937.6"/>
<line class="st2" x1="864" y1="454.2" x2="987.8" y2="810"/>
<line class="st2" x1="525.2" y1="545.7" x2="665.4" y2="948.2"/>
<path class="st3" d="M1059,550.8c4.2,12.1-3.1,25.6-16.3,30.2c-13.2,4.6-27.4-1.5-31.6-13.5c-4.2-12.1,3.1-25.6,16.3-30.2
	C1040.6,532.6,1054.8,538.7,1059,550.8z"/>
<path class="st4" d="M935.7,468.3c-39.2-40.7-57.9-194.4-25-223.9"/>
<path class="st4" d="M985.6,467.6c18.9-17.7,56.3-182.6,46-231.9"/>
<path class="st0" d="M610.4,610.4c-107.1,15.3-557.2-82.6-475.8-252C216,188.8,534.1,416.6,610.4,610.4z"/>
<line class="st2" x1="627.8" y1="496" x2="776.5" y2="923.5"/>
<line class="st2" x1="738.8" y1="457.4" x2="887.6" y2="884.8"/>
</svg>
