<?xml version="1.0" encoding="utf-8"?>
<!-- Generator: Adobe Illustrator 22.1.0, SVG Export Plug-In . SVG Version: 6.00 Build 0)  -->
<svg version="1.1" id="Calque_1" xmlns="http://www.w3.org/2000/svg" xmlns:xlink="http://www.w3.org/1999/xlink" x="0px" y="0px"
	 viewBox="0 0 1280 1024" style="enable-background:new 0 0 1280 1024;" xml:space="preserve">
<style type="text/css">
	.st0{fill:none;stroke:#00A651;stroke-width:24;stroke-linecap:round;stroke-miterlimit:10;}
	.st1{fill:#ECA56B;}
	.st2{fill:#86A5FF;}
	.st3{fill:#ECA5FF;}
	.st4{fill:#FFE784;}
	.st5{fill:none;stroke:#000000;stroke-width:6.409;stroke-linecap:round;stroke-miterlimit:10;}
	.st6{fill:none;stroke:#000000;stroke-width:2;stroke-linecap:round;stroke-miterlimit:10;}
	.st7{fill:#D1FFFF;}
	.st8{fill:none;stroke:#F9ED32;stroke-width:8;stroke-linecap:round;stroke-miterlimit:10;}
	.st9{fill:#F9ED32;}
</style>
<line class="st0" x1="534.5" y1="1053.8" x2="534.5" y2="510.3"/>
<path class="st1" d="M530.8,790.9c-57.8,75-132,92.8-156.3,29.3c-24.3-63.5,53.3-118.3,108-83.6C391.3,707.8,348.7,629.9,379.1,601
	c30.4-28.8,130.7-26,152,118.3c-21.3-57.7-43.9-200.4,53.4-194.6c97.3,5.8,25.7,168.6-1.7,197.5c30.4-37.5,112.5-101,149-54.8
	c36.5,46.2-48.6,106.7-124.7,106.7c76,17.3,106.7,93.9,70.2,117C640.8,914.2,543,925.3,530.8,790.9z"/>
<line class="st0" x1="874.5" y1="1031.8" x2="874.5" y2="488.3"/>
<path class="st2" d="M868,641.6c-58.3,75.7-133.3,93.7-157.9,29.6c-24.6-64.1,53.8-119.4,109.1-84.5
	c-92.1-29.1-135.1-107.8-104.4-136.9c30.7-29.1,132-26.2,153.5,119.4C846.8,511,824,366.9,922.3,372.7
	c98.3,5.8,25.9,170.3-1.7,199.4c30.7-37.9,113.6-102,150.5-55.4s-49.1,107.8-125.9,107.8c76.8,17.5,107.8,94.8,70.9,118.1
	C979.1,766,880.3,777.3,868,641.6z"/>
<path class="st0" d="M699.7,517.9c42.5,27.4,100.1,352.6,52.5,504.6"/>
<path class="st3" d="M629.4,591c-98.8,150.5-182,144.7-267.2,58.8c-94.4-95.1,91.1-237.3,184.6-167.8
	c-155.9-57.9-228.7-214.1-176.7-272c52-57.9,223.5-52.1,259.9,237.3C593.6,331.5,529.7,73,724.7,84.7c166.4,10,40.4,310.5-6.4,368.3
	c52-75.2,122.6-200.1,185-107.5c62.4,92.6-13.5,211.7-143.4,211.7c130,34.7,53,71.1-9.3,117.4C688.2,720.9,650.3,860.5,629.4,591z"
	/>
<g>
	<path class="st4" d="M627,339.9c13.8,46.9-35.2,102.6-109.5,124.5c-74.3,21.9-145.7,1.7-159.5-45.1
		c-13.8-46.8,35.2-102.6,109.5-124.5C541.8,272.9,613.2,293.1,627,339.9z"/>
	<line class="st5" x1="364.3" y1="383.8" x2="382.9" y2="446.7"/>
	<line class="st5" x1="386" y1="346.7" x2="421.2" y2="466"/>
	<line class="st5" x1="544.5" y1="291.8" x2="584.2" y2="426.3"/>
	<line class="st5" x1="416.9" y1="319.7" x2="461.8" y2="471.9"/>
	<line class="st5" x1="455.9" y1="303.1" x2="503.6" y2="464.7"/>
	<line class="st5" x1="497.9" y1="290.7" x2="545.6" y2="452.3"/>
	<path d="M615.3,331.2c1.3,4.6-1.6,9.5-6.6,10.9c-5,1.5-10.2-1-11.5-5.6c-1.3-4.6,1.6-9.5,6.6-10.9
		C608.8,324.1,613.9,326.6,615.3,331.2z"/>
	<path class="st6" d="M570.9,298.3c-13.9-15.8-18.1-73.3-5.3-83.7"/>
	<path class="st6" d="M589.5,298.9c7.3-6.3,24.2-66.9,21.3-85.4"/>
	<path class="st7" d="M447.9,345.2c-39.7-6.8-188-92.9-139.8-143.7C356.3,150.8,443,267.8,447.9,345.2z"/>
	<path class="st7" d="M448,301.7c-19.3-60.5-31.9-156.5,21.2-157.8c52-1.3,53.5,77.8,29.8,142.4C483,291.3,464.8,294.4,448,301.7z"
		/>
</g>
<path class="st8" d="M522.7,463.5c22.1,20.5,90.6,34,102.8,20.3"/>
<path class="st8" d="M658.9,481.9c5.8-18.8-81.1-81.5-124.5-84.6"/>
<path class="st8" d="M666,451.3c14.1-11.8-11.8-70.5-35.3-72.9"/>
<path class="st8" d="M649.5,488c-2.9,11.4-40.5,37.3-62.9,26.3"/>
<path class="st8" d="M560.2,448c34.3,33.9,76.4,36.2,87,36.2c0-11.3-76.4-56.6-87-61.1"/>
<path class="st8" d="M663.6,486.6c9.4-9.4,14.1-68.2-35.3-82.3"/>
<path class="st8" d="M667.1,485.4c18.7-2.7,39.4-47.5,29-65.3"/>
<ellipse class="st9" cx="446.9" cy="477.9" rx="20.1" ry="24.7"/>
<ellipse class="st9" cx="491.1" cy="473.6" rx="20.1" ry="24.7"/>
<circle class="st9" cx="614.5" cy="501" r="2.4"/>
<circle class="st9" cx="657" cy="497.8" r="1.6"/>
<ellipse class="st9" cx="654.2" cy="452.4" rx="2.8" ry="2"/>
<circle class="st9" cx="683.9" cy="449.2" r="3.6"/>
<ellipse class="st9" cx="677.5" cy="500.2" rx="1.2" ry="1.6"/>
<ellipse class="st9" cx="646.2" cy="511.5" rx="2" ry="0.8"/>
<ellipse class="st9" cx="614.1" cy="469.7" rx="2" ry="2.4"/>
<circle class="st9" cx="647.8" cy="472.5" r="2"/>
<ellipse class="st9" cx="632.1" cy="428.7" rx="3.2" ry="0.8"/>
<circle class="st9" cx="636.9" cy="522.7" r="1.6"/>
<ellipse class="st9" cx="622.9" cy="522.7" rx="2" ry="1.6"/>
<ellipse class="st9" cx="581.5" cy="504.6" rx="2.4" ry="1.2"/>
<ellipse class="st9" cx="577.5" cy="476.5" rx="1.6" ry="1.2"/>
<ellipse class="st9" cx="600.4" cy="460.8" rx="2" ry="2.4"/>
<ellipse class="st9" cx="649.8" cy="444.4" rx="2.4" ry="2.8"/>
<ellipse class="st9" cx="629.3" cy="428.7" rx="2" ry="3.2"/>
<ellipse class="st9" cx="680.7" cy="429.1" rx="2" ry="2.8"/>
<ellipse class="st9" cx="699.2" cy="486.2" rx="1.2" ry="2.8"/>
<ellipse class="st9" cx="663.5" cy="515.9" rx="1.6" ry="2.8"/>
</svg>
