<?xml version="1.0" encoding="utf-8"?>
<!-- Generator: Adobe Illustrator 22.1.0, SVG Export Plug-In . SVG Version: 6.00 Build 0)  -->
<svg version="1.1" id="Calque_1" xmlns="http://www.w3.org/2000/svg" xmlns:xlink="http://www.w3.org/1999/xlink" x="0px" y="0px"
	 viewBox="0 0 1280 1024" style="enable-background:new 0 0 1280 1024;" xml:space="preserve">
<style type="text/css">
	.st0{fill:#010101;}
</style>
<path class="st0" d="M472.4,639.9h585.9c26,0,47-21.1,47-47V443.7c0-26-21.1-47-47-47H472.4c-26,0-47,21.1-47,47v149.1
	C425.3,618.8,446.4,639.9,472.4,639.9z"/>
<path class="st0" d="M353.7,386.3l-150.7,90c-31.5,18.8-30.8,64.6,1.2,82.5l153.3,85.5l153.3,85.5c32,17.9,71.4-5.6,70.9-42.3
	L579.1,512l-2.6-175.5c-0.5-36.7-40.6-59-72.1-40.2L353.7,386.3z"/>
</svg>
