<?xml version="1.0" encoding="utf-8"?>
<!-- Generator: Adobe Illustrator 22.1.0, SVG Export Plug-In . SVG Version: 6.00 Build 0)  -->
<svg version="1.1" id="Calque_1" xmlns="http://www.w3.org/2000/svg" xmlns:xlink="http://www.w3.org/1999/xlink" x="0px" y="0px"
	 viewBox="0 0 1280 1024" style="enable-background:new 0 0 1280 1024;" xml:space="preserve">
<style type="text/css">
	.st0{fill:#FF975C;}
	.st1{fill:none;stroke:#FF975C;stroke-width:30;stroke-linecap:round;stroke-miterlimit:10;}
	.st2{fill:#FFE784;}
	.st3{fill:none;stroke:#000000;stroke-width:2.6011;stroke-linecap:round;stroke-miterlimit:10;}
	.st4{fill:none;stroke:#000000;stroke-width:0.8117;stroke-linecap:round;stroke-miterlimit:10;}
	.st5{fill:#D1FFFF;}
	.st6{fill:none;stroke:#000000;stroke-width:2.0428;stroke-linecap:round;stroke-miterlimit:10;}
	.st7{fill:none;stroke:#000000;stroke-width:0.6375;stroke-linecap:round;stroke-miterlimit:10;}
	.st8{fill:none;stroke:#000000;stroke-width:6.409;stroke-linecap:round;stroke-miterlimit:10;}
	.st9{fill:none;stroke:#000000;stroke-width:2;stroke-linecap:round;stroke-miterlimit:10;}
	.st10{fill:#F9ED32;}
</style>
<path class="st0" d="M956.4,938.1c0,14.1-11.4,25.5-25.5,25.5H391.6c-14.1,0-25.5-11.4-25.5-25.5v-536c0-14.1,11.4-25.5,25.5-25.5
	h539.2c14.1,0,25.5,11.4,25.5,25.5V938.1z"/>
<line class="st1" x1="318.3" y1="440.3" x2="661.3" y2="97.3"/>
<line class="st1" x1="666.1" y1="92.6" x2="1041" y2="467.5"/>
<path d="M570.3,962.6c0-60.6,0-152.1,0-196.8c0-111.7,143.6-111.7,143.6-9.6v207.4"/>
<polygon class="st0" points="505.3,350.9 666,206.2 806.7,346.9 "/>
<g>
	<path class="st2" d="M494.9,547.8c8.3,23.9-15.6,53.9-53.5,67.1c-37.9,13.2-75.3,4.5-83.6-19.4c-8.3-23.9,15.6-53.9,53.5-67.1
		C449.1,515.2,486.6,523.9,494.9,547.8z"/>
	<line class="st3" x1="360.1" y1="577" x2="371.3" y2="609"/>
	<line class="st3" x1="370.4" y1="557.3" x2="391.6" y2="618.1"/>
	<line class="st3" x1="451" y1="524.9" x2="474.8" y2="593.5"/>
	<line class="st3" x1="385.7" y1="542.5" x2="412.7" y2="620.1"/>
	<line class="st3" x1="405.5" y1="533" x2="434.1" y2="615.4"/>
	<line class="st3" x1="426.9" y1="525.5" x2="455.5" y2="607.9"/>
	<path d="M488.6,543.5c0.8,2.3-0.6,4.9-3.1,5.8c-2.6,0.9-5.3-0.3-6.1-2.6c-0.8-2.3,0.6-4.9,3.1-5.8C485,540,487.7,541.2,488.6,543.5
		z"/>
	<path class="st4" d="M464.8,527.6c-7.6-7.8-11.2-37.5-4.8-43.2"/>
	<path class="st4" d="M474.4,527.5c3.6-3.4,10.8-35.2,8.9-44.7"/>
	<path class="st5" d="M402.4,554.9c-20.7-2.5-99.5-43.4-75.8-70.8C350.2,456.7,397.9,515,402.4,554.9z"/>
	<path class="st5" d="M401.3,532.4c-11.5-30.8-20.4-80.1,7-82.1c26.8-2,29.6,38.9,19,72.9C419.2,526.2,409.8,528.3,401.3,532.4z"/>
</g>
<g>
	<path class="st2" d="M541.5,886.1c6.1,15.7-9.2,36.3-34.2,46c-25,9.7-50.2,4.7-56.2-11c-6.1-15.7,9.2-36.3,34.2-46
		C510.2,865.4,535.4,870.4,541.5,886.1z"/>
	<line class="st3" x1="452.2" y1="908.7" x2="460.4" y2="929.8"/>
	<line class="st3" x1="458.6" y1="895.3" x2="474.1" y2="935.4"/>
	<line class="st3" x1="511.7" y1="871.9" x2="529.1" y2="917.1"/>
	<line class="st3" x1="468.5" y1="885.1" x2="488.3" y2="936.3"/>
	<line class="st3" x1="481.5" y1="878.3" x2="502.5" y2="932.6"/>
	<line class="st3" x1="495.6" y1="872.8" x2="516.6" y2="927.1"/>
	<path d="M537.2,883.4c0.6,1.5-0.3,3.3-2,4c-1.7,0.7-3.5-0.1-4.1-1.6c-0.6-1.5,0.3-3.3,2-4C534.7,881.2,536.6,881.9,537.2,883.4z"/>
	<path class="st4" d="M520.9,873.4c-5.2-5.1-8.3-24.7-4.2-28.7"/>
	<path class="st4" d="M527.4,873.1c2.4-2.4,6.4-23.7,4.9-30"/>
	<path class="st5" d="M479.9,893c-13.9-1.2-67.4-26.7-52.2-45.5C442.8,828.6,476,866.5,479.9,893z"/>
	<path class="st5" d="M478.7,878c-8.4-20.3-15.4-53,2.8-55c17.9-1.9,20.6,25.3,14.3,48.2C490.5,873.5,484.3,875,478.7,878z"/>
</g>
<g>
	<path class="st2" d="M468.3,412.4c-0.8,19.8,24.1,36.9,55.6,38.2c31.5,1.2,57.6-13.8,58.4-33.7c0.8-19.8-24.1-36.9-55.6-38.2
		S469.1,392.6,468.3,412.4z"/>
	<line class="st6" x1="576.3" y1="403.5" x2="575.2" y2="430.2"/>
	<line class="st6" x1="564" y1="391.1" x2="562" y2="441.6"/>
	<line class="st6" x1="496.1" y1="385.2" x2="493.8" y2="442.2"/>
	<line class="st6" x1="549.2" y1="383.5" x2="546.6" y2="448"/>
	<line class="st6" x1="532.1" y1="380.9" x2="529.4" y2="449.3"/>
	<line class="st6" x1="514.4" y1="380.2" x2="511.7" y2="448.6"/>
	<path d="M472.1,407.8c-0.1,1.9,1.6,3.6,3.7,3.7c2.1,0.1,3.9-1.4,4-3.4c0.1-1.9-1.6-3.6-3.7-3.7C474,404.4,472.2,405.9,472.1,407.8z
		"/>
	<path class="st7" d="M486.3,390.4c3.9-7.6-0.2-30.7-6.3-33.5"/>
	<path class="st7" d="M479.1,392.5c-3.5-1.7-16.2-24-16.9-31.5"/>
	<path class="st5" d="M539.5,396.6c15-6.6,64.8-55.3,40.8-70.5C556.2,310.9,533.7,365.7,539.5,396.6z"/>
	<path class="st5" d="M535.1,379.5c1.6-25.8-3-64.9-24.1-60.1c-20.6,4.7-13.3,36,2.4,59.1C520.3,378.9,527.8,378.3,535.1,379.5z"/>
</g>
<g>
	<path class="st2" d="M885.6,866.4c-3.2,19.6,19.5,39.6,50.6,44.6c31.1,5,58.9-6.8,62-26.4c3.2-19.6-19.5-39.6-50.6-44.6
		C916.5,834.9,888.8,846.8,885.6,866.4z"/>
	<line class="st6" x1="993.8" y1="870.5" x2="989.6" y2="896.8"/>
	<line class="st6" x1="983.1" y1="856.7" x2="975.1" y2="906.6"/>
	<line class="st6" x1="916.4" y1="842.7" x2="907.3" y2="899"/>
	<line class="st6" x1="969.3" y1="847.4" x2="959" y2="911.1"/>
	<line class="st6" x1="952.7" y1="842.7" x2="941.8" y2="910.3"/>
	<line class="st6" x1="935.1" y1="839.9" x2="924.2" y2="907.5"/>
	<path d="M889.9,862.2c-0.3,1.9,1.1,3.7,3.2,4.1c2.1,0.3,4-0.9,4.4-2.8c0.3-1.9-1.1-3.7-3.2-4.1C892.2,859,890.2,860.3,889.9,862.2z
		"/>
	<path class="st7" d="M906.1,846.7c4.8-7.1,3.5-30.5-2.2-34"/>
	<path class="st7" d="M898.6,847.9c-3.3-2.1-13.2-25.7-13-33.4"/>
	<path class="st5" d="M958.1,859.2c15.7-4.8,71-47.2,49-65.1C985,776.1,956.1,827.8,958.1,859.2z"/>
	<path class="st5" d="M955.8,841.7c4.7-25.4,4.8-64.7-16.7-62.6c-21,2.1-17.6,34.1-4.7,59C941.2,839.3,948.7,839.6,955.8,841.7z"/>
</g>
<g>
	<path class="st2" d="M275.9,793.7c4.3,19.4,32.7,29.6,63.4,22.8c30.7-6.8,52.2-28,47.9-47.4c-4.3-19.4-32.7-29.6-63.4-22.8
		C293.1,753.1,271.6,774.4,275.9,793.7z"/>
	<line class="st6" x1="378.1" y1="757.7" x2="383.8" y2="783.8"/>
	<line class="st6" x1="363" y1="748.8" x2="374" y2="798.2"/>
	<line class="st6" x1="295.9" y1="760.4" x2="308.2" y2="816"/>
	<line class="st6" x1="346.8" y1="745.3" x2="360.7" y2="808.2"/>
	<line class="st6" x1="329.6" y1="747" x2="344.4" y2="813.9"/>
	<line class="st6" x1="312.2" y1="750.8" x2="327" y2="817.7"/>
	<path d="M278.4,788.3c0.4,1.9,2.4,3,4.5,2.6c2.1-0.5,3.4-2.4,3-4.3c-0.4-1.9-2.4-3-4.5-2.6C279.3,784.5,278,786.4,278.4,788.3z"/>
	<path class="st7" d="M287.7,767.9c1.8-8.4-8-29.6-14.6-30.8"/>
	<path class="st7" d="M281.2,771.8c-3.8-0.8-21.7-19-24.4-26.2"/>
	<path class="st5" d="M340.7,760.4c12.8-10.2,48.6-70,21.5-78.6C335.1,673.2,327.2,731.9,340.7,760.4z"/>
	<path class="st5" d="M332.1,744.9c-5-25.3-19.4-62-38.6-52c-18.8,9.7-3.8,38.2,17.4,56.6C317.6,748.1,324.7,745.7,332.1,744.9z"/>
</g>
<g>
	<g>
		<path class="st2" d="M722.6,621.7c18.3,46.4,92.9,60.5,166.5,31.5c73.6-29.1,118.5-90.3,100.2-136.7
			C971,470,896.4,455.9,822.8,485C749.1,514.1,704.3,575.3,722.6,621.7z"/>
		<line class="st8" x1="961.9" y1="491.8" x2="986.5" y2="554.2"/>
		<line class="st8" x1="921" y1="475.6" x2="967.7" y2="593.9"/>
		<line class="st8" x1="758.9" y1="531" x2="811.5" y2="664.3"/>
		<line class="st8" x1="879.2" y1="473.3" x2="938.8" y2="624.1"/>
		<line class="st8" x1="837.3" y1="484.4" x2="900.6" y2="644.6"/>
		<line class="st8" x1="795.7" y1="500.8" x2="858.9" y2="661"/>
		<path d="M726.6,607.2c1.8,4.5,7.3,6.6,12.2,4.7c5-2,7.5-7.2,5.7-11.7c-1.8-4.5-7.3-6.6-12.2-4.7
			C727.4,597.4,724.8,602.7,726.6,607.2z"/>
		<path class="st9" d="M741.6,552.8c1.2-21.5-31.6-70.4-48.4-70.8"/>
		<path class="st9" d="M727.1,565.1c-9.9-0.4-61.5-38.7-70.9-55.5"/>
		<path class="st5" d="M870.2,513.3c27.7-30.5,93-193.1,22.3-203.7C821.7,299,825.5,447.8,870.2,513.3z"/>
		<path class="st5" d="M842.8,478.3c-22.5-60.9-72.7-146.2-116.4-113.8C683.7,396,732.3,460.8,792,498
			C808.1,492,824.7,483,842.8,478.3z"/>
	</g>
	
		<ellipse transform="matrix(0.7882 -0.6154 0.6154 0.7882 -179.1303 718.554)" class="st10" cx="954.5" cy="619.6" rx="20.5" ry="25.2"/>
	
		<ellipse transform="matrix(0.7882 -0.6154 0.6154 0.7882 -202.2402 700.1071)" class="st10" cx="916.1" cy="643.9" rx="20.5" ry="25.2"/>
</g>
</svg>
