<?xml version="1.0" encoding="utf-8"?>
<!-- Generator: Adobe Illustrator 22.1.0, SVG Export Plug-In . SVG Version: 6.00 Build 0)  -->
<svg version="1.1" id="Calque_1" xmlns="http://www.w3.org/2000/svg" xmlns:xlink="http://www.w3.org/1999/xlink" x="0px" y="0px"
	 viewBox="0 0 1280 1024" style="enable-background:new 0 0 1280 1024;" xml:space="preserve">
<style type="text/css">
	.st0{fill:#FEE685;}
	.st1{fill:none;stroke:#010101;stroke-width:11;stroke-linecap:round;stroke-miterlimit:10;}
	.st2{fill:#010101;}
	.st3{fill:none;stroke:#010101;stroke-width:4;stroke-linecap:round;stroke-miterlimit:10;}
	.st4{fill:#D7EFF4;}
	.st5{fill:#F5965F;}
	.st6{fill:none;stroke:#F5965F;stroke-width:30;stroke-linecap:round;stroke-miterlimit:10;}
	.st7{fill:none;stroke:#010101;stroke-width:2.6011;stroke-linecap:round;stroke-miterlimit:10;}
	.st8{fill:none;stroke:#010101;stroke-width:0.8117;stroke-linecap:round;stroke-miterlimit:10;}
	.st9{fill:none;stroke:#010101;stroke-width:2.0428;stroke-linecap:round;stroke-miterlimit:10;}
	.st10{fill:none;stroke:#010101;stroke-width:0.6375;stroke-linecap:round;stroke-miterlimit:10;}
</style>
<g>
	<path class="st0" d="M1078,303.6c15,43-28.2,97.1-96.3,120.8c-68.2,23.7-135.6,8.1-150.5-34.9c-15-43,28.2-97.1,96.3-120.8
		C995.6,245,1063,260.6,1078,303.6z"/>
	<line class="st1" x1="835.4" y1="356.1" x2="855.5" y2="413.9"/>
	<line class="st1" x1="854" y1="320.7" x2="892.1" y2="430.2"/>
	<line class="st1" x1="999" y1="262.5" x2="1041.9" y2="385.9"/>
	<line class="st1" x1="881.5" y1="294.2" x2="930.1" y2="433.8"/>
	<line class="st1" x1="917" y1="277" x2="968.6" y2="425.3"/>
	<line class="st1" x1="955.6" y1="263.6" x2="1007.2" y2="411.8"/>
	<path class="st2" d="M1066.6,296c1.5,4.2-1.1,8.9-5.7,10.5c-4.6,1.6-9.5-0.5-11-4.7c-1.5-4.2,1.1-8.9,5.7-10.5
		C1060.2,289.7,1065.1,291.8,1066.6,296z"/>
	<path class="st3" d="M1023.9,267.3c-13.6-14.1-20.1-67.4-8.7-77.7"/>
	<path class="st3" d="M1041.2,267.1c6.6-6.1,19.5-63.3,16-80.5"/>
	<path class="st4" d="M911.5,316.5C874.2,311.9,732.4,238.4,775,189C817.6,139.6,903.5,244.7,911.5,316.5z"/>
	<path class="st4" d="M909.6,276c-20.7-55.4-36.7-144.2,12.7-147.9c48.3-3.6,53.3,70,34.1,131.2C941.8,264.8,924.9,268.5,909.6,276z
		"/>
</g>
<path class="st5" d="M705.1,880.4c0,10.3-8.3,18.6-18.6,18.6H292.5c-10.3,0-18.6-8.4-18.6-18.6V488.8c0-10.3,8.3-18.6,18.6-18.6
	h393.9c10.3,0,18.6,8.4,18.6,18.6V880.4z"/>
<line class="st6" x1="239" y1="516.7" x2="489.5" y2="266.1"/>
<line class="st6" x1="493" y1="262.6" x2="766.9" y2="536.5"/>
<path class="st2" d="M423.1,898.2c0-44.3,0-111.1,0-143.8c0-81.6,104.9-81.6,104.9-7V899"/>
<polygon class="st5" points="375.6,451.4 493,345.7 595.7,448.4 "/>
<g>
	<path class="st0" d="M368,595.2c6.1,17.4-11.4,39.4-39.1,49c-27.7,9.6-55,3.3-61.1-14.2c-6.1-17.4,11.4-39.4,39.1-49
		C334.5,571.4,361.9,577.8,368,595.2z"/>
	<line class="st7" x1="269.5" y1="616.5" x2="277.7" y2="640"/>
	<line class="st7" x1="277" y1="602.2" x2="292.5" y2="646.6"/>
	<line class="st7" x1="335.9" y1="578.5" x2="353.3" y2="628.6"/>
	<line class="st7" x1="288.2" y1="591.4" x2="307.9" y2="648.1"/>
	<line class="st7" x1="302.6" y1="584.4" x2="323.6" y2="644.6"/>
	<line class="st7" x1="318.3" y1="579" x2="339.2" y2="639.1"/>
	<path class="st2" d="M363.3,592.1c0.6,1.7-0.4,3.6-2.3,4.3c-1.9,0.6-3.9-0.2-4.4-1.9c-0.6-1.7,0.4-3.6,2.3-4.3
		C360.8,589.6,362.8,590.4,363.3,592.1z"/>
	<path class="st8" d="M346,580.5c-5.5-5.7-8.2-27.4-3.5-31.5"/>
	<path class="st8" d="M353,580.4c2.7-2.5,7.9-25.7,6.5-32.7"/>
	<path class="st4" d="M300.4,600.4c-15.1-1.9-72.7-31.7-55.4-51.7C262.3,528.7,297.1,571.3,300.4,600.4z"/>
	<path class="st4" d="M299.6,584c-8.4-22.5-14.9-58.5,5.1-60c19.6-1.4,21.6,28.4,13.9,53.3C312.7,579.5,305.8,581,299.6,584z"/>
</g>
<g>
	<path class="st0" d="M580.2,644.1c0.7,18.5-22.4,34.4-51.7,35.5c-29.3,1.2-53.6-12.9-54.3-31.3c-0.7-18.5,22.4-34.4,51.7-35.5
		C555.2,611.6,579.5,625.7,580.2,644.1z"/>
	<line class="st7" x1="479.8" y1="635.8" x2="480.8" y2="660.6"/>
	<line class="st7" x1="491.2" y1="624.3" x2="493.1" y2="671.3"/>
	<line class="st7" x1="554.4" y1="618.8" x2="556.5" y2="671.8"/>
	<line class="st7" x1="505.1" y1="617.2" x2="507.4" y2="677.2"/>
	<line class="st7" x1="520.9" y1="614.8" x2="523.4" y2="678.4"/>
	<line class="st7" x1="537.4" y1="614.1" x2="540" y2="677.8"/>
	<path class="st2" d="M576.7,639.8c0.1,1.8-1.5,3.3-3.4,3.4c-2,0.1-3.6-1.3-3.7-3.1c-0.1-1.8,1.5-3.3,3.4-3.4
		C575,636.6,576.7,638,576.7,639.8z"/>
	<path class="st8" d="M563.5,623.6c-3.6-7.1,0.2-28.6,5.8-31.2"/>
	<path class="st8" d="M570.3,625.6c3.3-1.6,15.1-22.3,15.7-29.4"/>
	<path class="st4" d="M514.1,629.4c-13.9-6.2-60.3-51.5-37.9-65.6C498.5,549.7,519.5,600.6,514.1,629.4z"/>
	<path class="st4" d="M518.1,613.5c-1.5-24,2.8-60.3,22.4-55.9c19.2,4.3,12.4,33.5-2.3,55C531.9,612.9,525,612.4,518.1,613.5z"/>
</g>
<g>
	<path class="st0" d="M370.2,793.3c-0.7,18.5,22.4,34.4,51.7,35.5c29.3,1.2,53.6-12.9,54.3-31.3c0.7-18.5-22.4-34.4-51.7-35.5
		C395.2,760.8,370.9,774.9,370.2,793.3z"/>
	<line class="st7" x1="470.6" y1="785" x2="469.6" y2="809.8"/>
	<line class="st7" x1="459.2" y1="773.5" x2="457.3" y2="820.5"/>
	<line class="st7" x1="396" y1="768" x2="393.9" y2="821"/>
	<line class="st7" x1="445.4" y1="766.4" x2="443" y2="826.4"/>
	<line class="st7" x1="429.5" y1="764" x2="427" y2="827.6"/>
	<line class="st7" x1="413" y1="763.3" x2="410.5" y2="827"/>
	<path class="st2" d="M373.7,789c-0.1,1.8,1.5,3.3,3.4,3.4c2,0.1,3.6-1.3,3.7-3.1c0.1-1.8-1.5-3.3-3.4-3.4
		C375.4,785.8,373.8,787.2,373.7,789z"/>
	<path class="st8" d="M386.9,772.8c3.6-7.1-0.2-28.6-5.8-31.2"/>
	<path class="st8" d="M380.2,774.8c-3.3-1.6-15.1-22.3-15.7-29.4"/>
	<path class="st4" d="M436.4,778.6c13.9-6.2,60.3-51.5,37.9-65.6C451.9,698.9,431,749.8,436.4,778.6z"/>
	<path class="st4" d="M432.3,762.7c1.5-24-2.8-60.3-22.4-55.9c-19.2,4.3-12.4,33.5,2.3,55C418.5,762.1,425.5,761.6,432.3,762.7z"/>
</g>
<g>
	<path class="st0" d="M595.9,427.2c-0.6,14.5,17.6,27,40.6,27.9c23,0.9,42.1-10.1,42.7-24.6c0.6-14.5-17.6-27-40.6-27.9
		C615.5,401.7,596.4,412.8,595.9,427.2z"/>
	<line class="st9" x1="674.7" y1="420.7" x2="673.9" y2="440.2"/>
	<line class="st9" x1="665.7" y1="411.7" x2="664.3" y2="448.6"/>
	<line class="st9" x1="616.1" y1="407.4" x2="614.5" y2="449"/>
	<line class="st9" x1="654.9" y1="406.1" x2="653" y2="453.2"/>
	<line class="st9" x1="642.5" y1="404.2" x2="640.5" y2="454.2"/>
	<line class="st9" x1="629.5" y1="403.7" x2="627.5" y2="453.7"/>
	<path class="st2" d="M598.6,423.9c-0.1,1.4,1.2,2.6,2.7,2.7c1.5,0.1,2.8-1,2.9-2.4c0.1-1.4-1.2-2.6-2.7-2.7
		C600,421.4,598.7,422.5,598.6,423.9z"/>
	<path class="st10" d="M609,411.2c2.8-5.6-0.1-22.4-4.6-24.5"/>
	<path class="st10" d="M603.7,412.7c-2.6-1.3-11.8-17.5-12.3-23"/>
	<path class="st4" d="M647.8,415.7c10.9-4.9,47.4-40.4,29.8-51.5C660,353.1,643.6,393.1,647.8,415.7z"/>
	<path class="st4" d="M644.6,403.2c1.2-18.8-2.2-47.4-17.6-43.9c-15.1,3.4-9.7,26.3,1.8,43.2C633.8,402.8,639.3,402.3,644.6,403.2z"
		/>
</g>
<g>
	<path class="st0" d="M695.5,787.1c6.8,12.8,28.8,14.4,49.1,3.6c20.3-10.8,31.3-29.9,24.5-42.7c-6.8-12.8-28.8-14.4-49.1-3.6
		C699.6,755.1,688.7,774.2,695.5,787.1z"/>
	<line class="st9" x1="760.4" y1="741.7" x2="769.5" y2="758.9"/>
	<line class="st9" x1="748" y1="738.4" x2="765.4" y2="771"/>
	<line class="st9" x1="703" y1="759.7" x2="722.6" y2="796.4"/>
	<line class="st9" x1="735.9" y1="739.1" x2="758" y2="780.7"/>
	<line class="st9" x1="724.2" y1="743.7" x2="747.6" y2="787.8"/>
	<line class="st9" x1="712.7" y1="749.8" x2="736.2" y2="794"/>
	<path class="st2" d="M696.2,782.7c0.7,1.3,2.3,1.7,3.7,0.9c1.4-0.7,1.9-2.3,1.3-3.6c-0.7-1.2-2.3-1.7-3.7-0.9
		C696.1,779.9,695.5,781.5,696.2,782.7z"/>
	<path class="st10" d="M698.8,766.5c-0.4-6.2-11.4-19.3-16.3-18.9"/>
	<path class="st10" d="M695,770.5c-2.9,0.2-19-9.2-22.3-13.7"/>
	<path class="st4" d="M734.6,750.9c7-9.7,20.5-58.8-0.2-59.5C713.6,690.6,719.5,733.5,734.6,750.9z"/>
	<path class="st4" d="M725.5,741.7c-8.5-16.8-25.8-39.8-37.3-29.1c-11.3,10.5,4.8,27.6,23.3,36.4
		C715.9,746.8,720.4,743.7,725.5,741.7z"/>
</g>
<g>
	<path class="st0" d="M208,774.9c3.1,14.2,23.9,21.6,46.3,16.7c22.5-5,38.1-20.5,35-34.6c-3.1-14.2-23.9-21.6-46.3-16.7
		C220.5,745.2,204.9,760.8,208,774.9z"/>
	<line class="st9" x1="282.6" y1="748.6" x2="286.8" y2="767.6"/>
	<line class="st9" x1="271.6" y1="742.1" x2="279.6" y2="778.2"/>
	<line class="st9" x1="222.6" y1="750.5" x2="231.6" y2="791.2"/>
	<line class="st9" x1="259.8" y1="739.5" x2="269.9" y2="785.5"/>
	<line class="st9" x1="247.2" y1="740.8" x2="258" y2="789.6"/>
	<line class="st9" x1="234.5" y1="743.6" x2="245.3" y2="792.4"/>
	<path class="st2" d="M209.8,770.9c0.3,1.4,1.8,2.2,3.3,1.9c1.5-0.3,2.5-1.7,2.2-3.1c-0.3-1.4-1.8-2.2-3.3-1.9
		C210.5,768.2,209.5,769.6,209.8,770.9z"/>
	<path class="st10" d="M216.6,756c1.3-6.1-5.8-21.7-10.6-22.5"/>
	<path class="st10" d="M211.9,758.9c-2.8-0.6-15.9-13.9-17.8-19.2"/>
	<path class="st4" d="M255.3,750.6c9.3-7.5,35.5-51.1,15.7-57.4C251.2,686.9,245.5,729.7,255.3,750.6z"/>
	<path class="st4" d="M249.1,739.3c-3.7-18.5-14.2-45.3-28.2-38c-13.7,7.1-2.7,27.9,12.7,41.3C238.5,741.6,243.7,739.8,249.1,739.3z
		"/>
</g>
</svg>
