<?xml version="1.0" encoding="utf-8"?>
<!-- Generator: Adobe Illustrator 22.1.0, SVG Export Plug-In . SVG Version: 6.00 Build 0)  -->
<svg version="1.1" id="Calque_1" xmlns="http://www.w3.org/2000/svg" xmlns:xlink="http://www.w3.org/1999/xlink" x="0px" y="0px"
	 viewBox="0 0 1280 1024" style="enable-background:new 0 0 1280 1024;" xml:space="preserve">
<style type="text/css">
	.st0{fill:#010101;}
</style>
<path class="st0" d="M812.8,639.9H226.9c-26,0-47-21.1-47-47V443.7c0-26,21.1-47,47-47h585.9c26,0,47,21.1,47,47v149.1
	C859.8,618.8,838.8,639.9,812.8,639.9z"/>
<path class="st0" d="M931.4,386.3l150.7,90c31.5,18.8,30.8,64.6-1.2,82.5l-153.3,85.5l-153.3,85.5c-32,17.9-71.4-5.6-70.9-42.3
	l2.6-175.5l2.6-175.5c0.5-36.7,40.6-59,72.1-40.2L931.4,386.3z"/>
</svg>
