<?xml version="1.0" encoding="utf-8"?>
<!-- Generator: Adobe Illustrator 22.1.0, SVG Export Plug-In . SVG Version: 6.00 Build 0)  -->
<svg version="1.1" id="Calque_1" xmlns="http://www.w3.org/2000/svg" xmlns:xlink="http://www.w3.org/1999/xlink" x="0px" y="0px"
	 viewBox="0 0 1280 1024" style="enable-background:new 0 0 1280 1024;" xml:space="preserve">
<style type="text/css">
	.st0{fill:#FFE784;}
	.st1{fill:none;stroke:#000000;stroke-width:6.409;stroke-linecap:round;stroke-miterlimit:10;}
	.st2{fill:none;stroke:#000000;stroke-width:2;stroke-linecap:round;stroke-miterlimit:10;}
	.st3{fill:#D1FFFF;}
	.st4{fill:none;stroke:#2EC317;stroke-width:15;stroke-linecap:round;stroke-miterlimit:10;}
	.st5{fill:#ECA5FF;}
	.st6{fill:#86A5FF;}
	.st7{fill:#ECA56B;}
</style>
<g>
	<path class="st0" d="M395.9,364.5c-9,50.2-80.8,79.3-160.3,65C156,415.3,98.8,363,107.8,312.9c9-50.2,80.8-79.3,160.3-65
		C347.7,262.1,404.9,314.3,395.9,364.5z"/>
	<line class="st1" x1="130.3" y1="282.6" x2="118.2" y2="350"/>
	<line class="st1" x1="167.9" y1="258.2" x2="145" y2="386"/>
	<line class="st1" x1="341.3" y1="281" x2="315.5" y2="425"/>
	<line class="st1" x1="209.3" y1="247.5" x2="180.1" y2="410.4"/>
	<line class="st1" x1="253.4" y1="250.2" x2="222.4" y2="423.2"/>
	<line class="st1" x1="298.4" y1="258.2" x2="267.4" y2="431.3"/>
	<path d="M389,350.8c-0.9,4.9-5.9,8.1-11.3,7.1c-5.4-1-9-5.7-8.1-10.6c0.9-4.9,5.9-8.1,11.3-7.1C386.2,341.2,389.8,345.9,389,350.8z
		"/>
	<path class="st2" d="M363,299.4c-5.5-21.2,17.4-76.8,34.2-80.6"/>
	<path class="st2" d="M380,308.7c9.8-2.4,53.8-51.1,59.7-69.8"/>
	<path class="st3" d="M226.3,285.7c-33.8-24.9-132-174.5-63.3-199.3C231.7,61.5,257.9,211.2,226.3,285.7z"/>
	<path class="st3" d="M246.7,245.1c10.2-65.4,43.3-160.9,93.5-137.3c49.1,23,13.6,97.6-38.7,146.8
		C284.2,251.9,265.8,246.2,246.7,245.1z"/>
</g>
<line class="st4" x1="471.8" y1="947.1" x2="471.8" y2="665.2"/>
<path class="st5" d="M460.6,665.6c-37.7,49-86.2,60.6-102.1,19.1c-15.9-41.5,34.8-77.3,70.6-54.6c-59.6-18.8-87.4-69.7-67.5-88.6
	c19.9-18.8,85.4-17,99.3,77.3c-13.9-37.7-28.7-130.9,34.9-127.1c63.6,3.8,16.8,110.2-1.1,129c19.9-24.5,73.5-65.9,97.3-35.8
	c23.8,30.1-31.8,69.7-81.4,69.7c49.7,11.3,69.7,61.3,45.9,76.4C532.5,746.1,468.6,753.3,460.6,665.6z"/>
<line class="st4" x1="845.9" y1="957.5" x2="845.9" y2="675.6"/>
<path class="st5" d="M837.8,745.8c-37.7,49-86.2,60.6-102.1,19.1c-15.9-41.5,34.8-77.2,70.6-54.6c-59.6-18.8-87.4-69.7-67.5-88.6
	c19.9-18.8,85.4-17,99.3,77.3c-13.9-37.7-28.7-130.9,34.9-127.1c63.6,3.8,16.8,110.2-1.1,129c19.9-24.5,73.5-66,97.3-35.8
	s-31.8,69.7-81.4,69.7c49.7,11.3,69.7,61.3,45.9,76.4C909.7,826.2,845.8,833.5,837.8,745.8z"/>
<line class="st4" x1="1006" y1="957.5" x2="1006" y2="606"/>
<path class="st6" d="M997.9,637.9c-37.7,49-86.2,60.6-102.1,19.1c-15.9-41.5,34.8-77.2,70.6-54.6c-59.6-18.8-87.4-69.7-67.5-88.6
	c19.9-18.8,85.4-17,99.3,77.3c-13.9-37.7-28.7-130.9,34.9-127.1c63.6,3.8,16.8,110.2-1.1,129c19.9-24.5,73.5-66,97.3-35.8
	s-31.8,69.7-81.4,69.7c49.7,11.3,69.7,61.3,45.9,76.4C1069.8,718.4,1005.9,725.6,997.9,637.9z"/>
<line class="st4" x1="717.2" y1="947.1" x2="717.2" y2="665.2"/>
<path class="st7" d="M705.9,665.6c-37.7,49-86.2,60.6-102.1,19.1c-15.9-41.5,34.8-77.3,70.6-54.6c-59.6-18.8-87.4-69.7-67.5-88.6
	c19.9-18.8,85.4-17,99.3,77.3c-13.9-37.7-28.7-130.9,34.9-127.1c63.6,3.8,16.8,110.2-1.1,129c19.9-24.5,73.5-65.9,97.3-35.8
	c23.8,30.1-31.8,69.7-81.4,69.7c49.7,11.3,69.7,61.3,45.9,76.4C777.8,746.1,713.9,753.3,705.9,665.6z"/>
<line class="st4" x1="574.5" y1="947.1" x2="574.5" y2="513.8"/>
<path class="st6" d="M563.2,522.9c-37.7,49-86.2,60.6-102.1,19.1c-15.9-41.5,34.8-77.2,70.6-54.6c-59.6-18.8-87.4-69.7-67.5-88.6
	c19.9-18.8,85.4-17,99.3,77.3c-13.9-37.7-28.7-130.9,34.9-127.1c63.6,3.8,16.8,110.2-1.1,129c19.9-24.5,73.5-65.9,97.3-35.8
	c23.8,30.1-31.8,69.7-81.4,69.7c49.7,11.3,69.7,61.3,45.9,76.4C635.1,603.4,571.2,610.6,563.2,522.9z"/>
</svg>
